<?xml version="1.0" encoding="UTF-8" standalone="no"?>
<!-- Created with Inkscape (http://www.inkscape.org/) -->

<svg
   width="210mm"
   height="297mm"
   viewBox="0 0 210 297"
   version="1.1"
   id="svg5"
   xmlns="http://www.w3.org/2000/svg"
   xmlns:svg="http://www.w3.org/2000/svg">
  <defs
     id="defs2" />
  <g
     id="layer1">
    <path
       style="fill:#000000;stroke-width:0.352778"
       d="m 293.01757,385.39792 -8.72864,-8.73386 19.57846,-19.5761 19.57846,-19.5761 -19.40352,-19.40588 -19.40352,-19.40589 8.74131,-8.73605 8.7413,-8.73604 19.37685,19.42493 19.37681,19.42497 19.42046,-19.41809 19.42045,-19.41809 8.73005,8.73009 8.73009,8.73005 -19.48963,19.49203 -19.48964,19.49199 19.49052,19.49288 19.49051,19.49292 -8.73993,8.73463 -8.73989,8.73468 -19.36881,-19.40811 C 349.6764,364.05842 340.8699,355.32477 340.7592,355.32477 c -0.1107,0 -8.93392,8.73157 -19.60715,19.40352 l -19.40588,19.40352 z M 11.766664,366.02555 c -33.565534,-1.11026 -61.011792,-5.5862 -82.306564,-13.42256 -3.512961,-1.29272 -4.302651,-1.70776 -4.133198,-2.17216 0.115214,-0.31577 2.061736,-5.22224 4.32561,-10.9033 3.34608,-8.39682 4.21832,-10.28281 4.662361,-10.08123 2.361674,1.07223 14.515614,4.8853 19.318514,6.06079 17.314194,4.23764 35.615089,6.38906 60.535475,7.11645 6.439902,0.18796 11.748601,0.34452 11.797108,0.34787 0.04851,0.004 0.0882,5.24489 0.0882,11.64781 v 11.64167 l -5.732639,-0.071 c -3.152952,-0.0391 -7.00264,-0.11303 -8.554862,-0.16436 z m 62.611039,-2.49869 c -0.0039,-0.53358 -0.318205,-5.41514 -0.698535,-10.84792 -0.38033,-5.43278 -0.694655,-10.22354 -0.698536,-10.64613 -0.0085,-0.90893 -0.569524,-0.828 13.045759,-1.88122 17.348269,-1.34197 39.197739,-3.62384 66.242889,-6.91808 7.42643,-0.90459 13.59503,-1.55229 13.70799,-1.43933 0.2812,0.2812 3.01399,22.15437 2.82836,22.6381 -0.0818,0.21333 -2.42408,0.66481 -5.216,1.00545 -35.02053,4.27264 -58.13749,6.70059 -79.503517,8.35022 -5.044723,0.38947 -9.291285,0.70834 -9.436806,0.70859 -0.145521,2.5e-4 -0.267759,-0.43611 -0.271604,-0.96968 z M 215.48106,348.91759 c -0.8412,-6.78064 -2.72792,-23.07005 -2.67793,-23.12021 0.32159,-0.32276 28.84325,-3.1744 40.43994,-4.04326 5.7089,-0.42771 27.27639,-0.65165 27.6425,-0.28702 0.10238,0.10195 -0.19896,5.26133 -0.66968,11.46528 -0.47071,6.20395 -0.85845,11.35927 -0.86169,11.45628 -0.004,0.097 -4.17297,0.19491 -9.26613,0.21753 -9.52391,0.0423 -14.86486,0.33711 -28.31028,1.5628 -7.88681,0.71896 -22.55114,2.28184 -24.95903,2.66002 -0.7276,0.11426 -1.32958,0.15412 -1.3377,0.0886 z m -341.00007,-36.17846 c -13.62767,-17.11801 -22.25207,-34.40077 -26.36999,-52.84371 -3.63346,-16.27322 -3.08223,-35.16183 1.44122,-49.38593 0.30852,-0.97014 0.60651,-1.81762 0.6622,-1.88331 0.12175,-0.14358 22.02862,6.96525 22.02862,7.1483 0,0.0703 -0.46086,1.95263 -1.02415,4.183 -1.74824,6.92227 -2.27808,12.13386 -2.03422,20.00895 0.23053,7.44485 0.82359,11.52458 2.69425,18.53414 3.63263,13.61182 10.90109,27.37686 21.10403,39.96683 l 2.9743,3.67019 -0.83279,0.79146 c -0.45804,0.43529 -4.0078,3.53861 -7.88836,6.89624 -3.88056,3.35767 -7.46689,6.48102 -7.96962,6.94084 l -0.91407,0.83597 z m 18.66414,-143.32064 c -3.73504,-5.03777 -6.79097,-9.30553 -6.79097,-9.48393 0,-0.4323 5.42583,-4.12796 10.52636,-7.16972 21.238324,-12.66578 51.018563,-21.08507 82.077808,-23.20456 3.104445,-0.21184 6.319133,-0.44076 7.143751,-0.50867 l 1.499306,-0.12351 0.0062,1.27956 c 0.0035,0.7038 0.238058,5.88335 0.52149,11.51016 0.283429,5.6268 0.518781,10.34962 0.523004,10.49514 0.0042,0.14552 -0.905136,0.26539 -2.020796,0.26634 -2.579899,0.004 -12.74263,0.89373 -18.256251,1.60147 -25.881162,3.32204 -47.763821,10.75355 -64.406516,21.8729 -2.164546,1.44617 -3.957327,2.6283 -3.983956,2.62692 -0.0266,0 -3.10436,-4.12432 -6.83939,-9.1621 z M 35.452691,147.50083 c -0.119242,-2.79259 -0.316911,-8.03546 -0.439265,-11.6508 l -0.222458,-6.57331 4.010071,-0.24398 c 27.279013,-1.65961 49.579685,-8.56602 68.549531,-21.22942 1.54185,-1.02927 2.82847,-1.83644 2.85916,-1.79373 6.44726,8.97438 13.21111,18.65013 13.21111,18.89868 0,0.18294 -1.54781,1.35696 -3.43959,2.60893 -22.322364,14.77296 -49.557586,23.2566 -79.682613,24.82075 l -4.629136,0.24034 z m 111.724129,-62.458161 -9.2287,-6.729158 3.12381,-4.719515 c 12.9292,-19.533606 21.57614,-42.921498 25.06102,-67.7838269 0.36626,-2.6130817 0.48489,-2.9096902 1.1611,-2.9032873 1.32193,0.012524 22.16785,2.4163481 22.32604,2.5745089 0.0835,0.083562 -0.17851,2.4340645 -0.58233,5.2233413 -4.03441,27.865505 -14.44841,55.301638 -29.16743,76.842872 -1.51758,2.220969 -2.91796,4.079995 -3.11199,4.131176 -0.19403,0.05118 -4.50571,-2.935069 -9.58152,-6.636111 z m 12.75652,-120.496771 c -8.97939,-18.95975 -24.86484,-40.989164 -41.67946,-57.799782 l -5.34335,-5.342075 5.49293,-5.961171 c 3.02108,-3.27865 6.58703,-7.13942 7.92427,-8.57949 l 2.43134,-2.61832 5.47003,5.44054 c 14.986,14.905199 26.9875,30.229447 37.96775,48.479426 3.64423,6.057001 11.52472,21.167864 11.18235,21.44224 -0.19039,0.152605 -20.01905,8.941612 -20.80003,9.219576 -0.39363,0.140099 -1.07131,-0.956391 -2.64583,-4.280944 z M -88.069454,-122.21894 c -17.232336,-0.82997 -30.840756,-2.25295 -47.184026,-4.93385 -5.72735,-0.9395 -8.0257,-1.4493 -8.0257,-1.7802 0,-0.50957 3.83903,-21.55687 4.0499,-22.20339 0.0943,-0.28927 1.14843,-0.21612 3.77315,0.26183 2.00323,0.36478 7.45223,1.21214 12.1089,1.88301 25.735712,3.70768 50.295732,4.56452 71.771063,2.50392 2.996865,-0.28755 5.509338,-0.46233 5.58328,-0.38839 0.126464,0.12646 2.863826,22.88323 2.768099,23.01231 -0.138659,0.18696 -12.67248,1.22723 -18.386331,1.526 -6.027455,0.31517 -20.986211,0.38231 -26.458335,0.11876 z m 163.336122,-2.4386 c -10.30411,-5.07476 -21.62529,-8.64442 -33.161113,-10.45596 -4.250994,-0.66756 -6.363812,-0.77558 -15.169446,-0.77558 -9.059168,0 -10.816252,0.0951 -15.345834,0.83037 -2.813403,0.4567 -5.4970225,0.847 -5.9635958,0.86733 -0.831582,0.0362 -0.8948632,-0.18231 -3.2072512,-11.07554 -1.2974144,-6.11188 -2.26504511,-11.22287 -2.15029355,-11.35777 0.32250241,-0.37911 7.52651085,-1.59943 13.32661555,-2.25746 6.350247,-0.72045 19.674696,-0.81431 25.511193,-0.17971 13.050952,1.41903 24.04216,4.09566 35.983336,8.76284 5.384765,2.10463 15.618637,7.04334 15.46652,7.46391 -0.54476,1.50618 -10.784382,20.13373 -11.056798,20.11412 -0.194027,-0.014 -2.099027,-0.88541 -4.233333,-1.93655 z m -274.703058,-17.76731 c -27.84067,-8.69204 -52.92019,-18.50722 -78.36245,-30.66812 l -5.2266,-2.49821 2.01261,-3.79968 c 1.10694,-2.08982 2.78422,-5.26811 3.7273,-7.06287 0.94307,-1.79476 2.51246,-4.75875 3.48754,-6.58665 l 1.77286,-3.32346 6.782,3.29093 c 20.85866,10.12156 48.01945,20.6643 73.26869,28.44 3.77698,1.16315 6.92145,2.16903 6.9877,2.23528 0.18706,0.18706 -6.36196,22.42632 -6.59394,22.39181 -0.11299,-0.0168 -3.64806,-1.10537 -7.85571,-2.41903 z"
       id="path836" />
  </g>
</svg>
