<?xml version="1.0" encoding="UTF-8" standalone="no"?>
<!-- Created with Inkscape (http://www.inkscape.org/) -->

<svg
   width="170.00456mm"
   height="147.47964mm"
   viewBox="0 0 170.00456 147.47964"
   version="1.1"
   id="svg5"
   xmlns="http://www.w3.org/2000/svg"
   xmlns:svg="http://www.w3.org/2000/svg">
  <defs
     id="defs2" />
  <g
     id="layer1"
     transform="translate(-21.744026,-38.775465)">
    <path
       style="fill:#1e2126;stroke-width:0.352778;fill-opacity:1"
       d="m 165.72874,184.05481 -2.2003,-2.20029 4.84545,-4.85474 4.84546,-4.85475 -4.84546,-4.85474 -4.84545,-4.85474 2.2003,-2.20029 2.2003,-2.2003 4.85474,4.84545 4.85474,4.84545 4.85474,-4.84545 4.85474,-4.84545 2.2003,2.2003 2.20029,2.20029 -4.84545,4.85474 -4.84545,4.85474 4.84545,4.85475 4.84545,4.85474 -2.20029,2.20029 -2.2003,2.2003 -4.85474,-4.84545 -4.85474,-4.84545 -4.85474,4.84545 -4.85474,4.84545 z m -75.826805,-5.24065 c -5.864056,-0.52277 -14.067173,-2.26229 -15.455456,-3.27742 -0.530271,-0.38775 -0.497195,-0.63401 0.386563,-2.87801 0.531548,-1.34968 0.981241,-2.48113 0.999321,-2.51433 0.0181,-0.0332 1.340541,0.31841 2.938801,0.78133 4.640002,1.34393 8.688275,1.94425 14.641655,2.1712 l 5.55625,0.21181 v 2.94593 2.94592 l -2.910417,-0.0485 c -1.600729,-0.0267 -4.371252,-0.17875 -6.156717,-0.33792 z m 21.253545,-0.29392 c -0.0768,-0.12432 -0.17844,-1.41116 -0.2258,-2.85965 l -0.0861,-2.63361 2.61761,-0.25394 c 1.43968,-0.13967 6.62924,-0.67886 11.53236,-1.1982 4.90312,-0.51935 8.97502,-0.88132 9.04867,-0.8044 0.0737,0.0769 0.2457,1.34726 0.38233,2.82295 l 0.24842,2.68308 -1.35959,0.2156 c -1.45098,0.23009 -17.03991,1.85928 -20.15556,2.10644 -1.02446,0.0813 -1.92551,0.0461 -2.00234,-0.0783 z m 35.27518,-3.88913 c -0.0641,-0.10616 -0.23099,-1.42333 -0.37081,-2.92705 -0.2046,-2.20035 -0.16006,-2.73487 0.22819,-2.73835 0.26533,-0.002 2.86367,-0.23724 5.77409,-0.52193 2.91041,-0.28468 6.54356,-0.52086 8.07364,-0.52484 l 2.78198,-0.007 -0.22434,1.63674 c -0.12338,0.9002 -0.22434,2.24958 -0.22434,2.99861 v 1.36187 l -3.96875,0.0172 c -2.18281,0.009 -5.76522,0.21541 -7.96091,0.4576 -2.19569,0.24219 -4.04462,0.35349 -4.10875,0.24733 z m -86.083715,-9.79434 c -2.095133,-2.65613 -4.949416,-8.44047 -5.706922,-11.56535 -0.732045,-3.01985 -0.772946,-9.49993 -0.07494,-11.87356 l 0.483154,-1.64301 2.762635,0.87307 c 2.288533,0.72324 2.720326,0.97493 2.516106,1.46662 -0.135593,0.32645 -0.326534,2.10178 -0.424317,3.94518 -0.278719,5.25452 1.153121,9.7218 4.700944,14.66672 l 1.802215,2.51192 -1.798236,1.57438 c -0.98903,0.86591 -1.990157,1.68912 -2.22473,1.82938 -0.269352,0.16104 -1.019485,-0.49678 -2.035905,-1.78535 z m 5.378288,-34.96964 -1.670219,-2.32682 2.145256,-1.36397 c 4.331021,-2.75368 10.355788,-4.7859 16.890408,-5.69732 2.149514,-0.29981 4.458371,-0.5451 5.130797,-0.5451 h 1.222594 v 2.80061 2.8006 l -1.675695,0.20998 c -9.398681,1.17772 -14.00374,2.5332 -18.961807,5.58132 l -1.411111,0.86752 z m 35.713277,-6.55297 c 0,-1.24531 -0.0889,-2.49577 -0.19747,-2.7788 -0.15802,-0.4118 0.35289,-0.56573 2.55764,-0.77057 5.17564,-0.48087 11.92529,-2.6331 14.89955,-4.75096 0.55949,-0.39839 1.10999,-0.72435 1.22334,-0.72435 0.11334,0 0.92916,0.99218 1.81294,2.20486 l 1.60686,2.20486 -0.98545,0.79521 c -1.425,1.14989 -6.23472,3.425 -9.08307,4.2965 -3.07627,0.94124 -7.86568,1.78746 -10.11666,1.78746 h -1.71768 z m 27.90826,-14.49201 c -1.18551,-0.87273 -2.15548,-1.64114 -2.15548,-1.70758 0,-0.0665 0.77907,-1.41705 1.73125,-3.00134 2.39578,-3.98621 4.02853,-8.742529 5.17223,-15.067108 0.12101,-0.669174 0.28893,-0.705598 2.17009,-0.47074 1.12142,0.140007 2.41414,0.267952 2.87274,0.284325 0.7902,0.02822 0.82142,0.117401 0.59707,1.705462 -0.39196,2.774551 -1.90849,8.167515 -3.15985,11.236871 -1.19724,2.9366 -4.37657,8.60688 -4.82588,8.60688 -0.13569,0 -1.21666,-0.71405 -2.40217,-1.58677 z m 2.64592,-31.123525 c -1.91317,-3.90089 -5.64428,-9.025217 -9.4764,-13.014952 l -1.73312,-1.804411 1.97006,-2.076145 1.97005,-2.076145 2.90971,3.015122 c 1.60033,1.658317 3.94157,4.477757 5.20275,6.265422 2.35253,3.334607 5.27929,8.386463 5.28722,9.126234 0.002,0.228311 -0.85504,0.808599 -1.90553,1.289527 -3.27468,1.499199 -3.12114,1.525534 -4.22474,-0.724652 z M 66.546934,56.739961 c -3.490758,-0.286562 -9.50715,-1.195514 -9.790829,-1.479192 -0.127953,-0.127952 0.860442,-5.216925 1.050074,-5.406559 0.05119,-0.05119 1.674097,0.165749 3.606455,0.48209 2.46434,0.403431 5.907105,0.583286 11.530317,0.602363 l 8.016939,0.0272 0.185331,1.411111 c 0.101935,0.776111 0.224939,2.046111 0.273343,2.822223 l 0.088,1.411111 -2.645833,0.218474 c -3.635548,0.300197 -7.954462,0.269045 -12.313801,-0.08882 z m 43.478046,-0.873608 c -3.59743,-1.702464 -7.22975,-2.361409 -12.003214,-2.177521 l -4.320534,0.16644 -0.58075,-2.610362 c -0.319412,-1.435699 -0.496171,-2.69494 -0.392796,-2.798313 0.103371,-0.103373 1.430909,-0.346904 2.950083,-0.541179 5.229051,-0.668701 11.937661,0.393647 16.866501,2.670911 l 2.59119,1.197203 -1.29222,2.503895 c -0.71072,1.377142 -1.45098,2.491872 -1.645,2.477178 -0.19403,-0.01469 -1.172,-0.414408 -2.17326,-0.888252 z M 39.349621,50.823255 C 33.282674,48.780831 30.148666,47.54876 25.322934,45.308949 l -3.578908,-1.661111 1.08293,-2.161822 c 1.63402,-3.26195 1.451563,-3.180537 4.120307,-1.838506 2.872028,1.444257 11.008578,4.658914 15.665553,6.18928 1.891771,0.62167 3.439583,1.291011 3.439583,1.487426 0,0.356047 -1.431407,5.23277 -1.533666,5.225115 -0.02961,-0.0022 -2.355709,-0.778951 -5.169112,-1.726076 z"
       id="path836" />
  </g>
</svg>
